<?xml version="1.0" encoding="UTF-8"?>
<svg id="Capa_2" data-name="Capa 2" xmlns="http://www.w3.org/2000/svg" viewBox="0 0 191.16 214.33">
  <defs>
    <style>
      .cls-1 {
        fill: #9f9f9f;
        stroke-width: 0px;
      }
    </style>
  </defs>
  <g id="Capa_1-2" data-name="Capa 1">
    <g id="isologo">
      <path class="cls-1" d="m191.16,170.74c-21.07,5.33-36.33,16.42-51.75,27.01-40.4,27.71-96.29,17.16-121.14-5.9-7.46-6.9-13.99-14.43-17.19-24.31-.94-2.91-2.04-6.1.43-8.63,2.48-2.53,5.26-.11,7.53.86,29.36,12.48,59.13,15.4,89.89,5.33,13.67-4.47,27.75-2.23,41.67-.51,1.87.23,3.74.49,4.09,2.81,1.34,8.88,7.65,7.08,13.32,6.02,10.05-1.88,20.02-4.4,33.16-2.68Z"/>
      <path class="cls-1" d="m74.35,48.9c-5.55-20.27-3.82-27.93,10.32-48.9,5.61,13.12,62.96,147.92,63.54,149.97,2.21,7.98.31,9.82-7.8,8.27-25.5-4.89-50.91-8.97-76.98-2.91-29.42,6.9-28.83-39.79-24.64-50.72,1.63-4.23,2.82-5.57,6.67-2.29,6.12,5.21,11.99,10.82,20.45,14.32-15.75-21.66-24.92-44.01-8.94-69.74,8.43,11.83,28.73,42.5,30.11,41.76,1.04-.6-9.67-28.61-12.73-39.75Z"/>
    </g>
  </g>
</svg>